<svg width="116" height="116" viewBox="0 0 116 116" fill="none" xmlns="http://www.w3.org/2000/svg">
<path d="M48.8301 19L49.2773 19.2236L49.6391 18.5H48.8301C32.4106 18.5 21.2553 25.7104 14.5388 35.8009C7.83715 45.8691 5.57263 58.7729 6.83302 70.1793C8.09073 81.5616 12.881 91.6034 20.463 95.7959C28.1226 100.031 38.3626 98.1733 50.1836 86.3522L50.289 86.2468L50.3195 86.101L49.8301 85.9987C50.3195 86.101 50.3195 86.1008 50.3196 86.1007L50.3197 86.1002L50.32 86.0986L50.3212 86.093L50.3253 86.0724C50.3289 86.0547 50.3341 86.0289 50.3405 85.9958C50.3533 85.9297 50.3714 85.8342 50.3925 85.7149C50.4346 85.4766 50.4892 85.142 50.5392 84.7559C50.6382 83.9917 50.7236 82.9937 50.6468 82.1354C50.6086 81.7083 50.5275 81.2809 50.3656 80.9256C50.202 80.5669 49.928 80.2263 49.4843 80.0975C49.0522 79.972 48.585 80.0851 48.1148 80.3376C47.6404 80.5925 47.0993 81.0224 46.4765 81.6451C41.762 86.3596 37.5334 88.936 33.8468 89.8901C30.1792 90.8393 27.0237 90.1908 24.3941 88.3989C21.7486 86.596 19.6014 83.611 18.0328 79.8391C16.4659 76.0711 15.4897 71.5485 15.1667 66.7167C14.5201 57.0468 16.494 46.2146 21.484 37.8182C26.4628 29.4406 34.4302 23.5002 45.8301 23.5C46.112 23.5 46.3581 23.3649 46.5402 23.2325C46.7326 23.0926 46.9205 22.906 47.097 22.7042C47.4512 22.2994 47.8115 21.7732 48.1291 21.265C48.4489 20.7533 48.7355 20.2436 48.9416 19.8631C49.0448 19.6725 49.1283 19.5135 49.1862 19.4018C49.2151 19.3459 49.2377 19.3018 49.2531 19.2715L49.2708 19.2365L49.2755 19.2272L49.2767 19.2247L49.2771 19.224L49.2772 19.2237C49.2773 19.2237 49.2773 19.2236 48.8301 19Z" fill="url(#paint0_linear)" stroke="#1C1553"/>
<path d="M21.4 47.13V51.002H26.152C26.5333 51.002 26.8487 51.1267 27.098 51.376C27.362 51.6107 27.494 51.9187 27.494 52.3C27.494 52.6227 27.362 52.9087 27.098 53.158C26.8487 53.4073 26.5333 53.532 26.152 53.532H21.4V58.658C21.4 59.0393 21.2607 59.362 20.982 59.626C20.718 59.8753 20.4027 60 20.036 60C19.6253 60 19.288 59.8753 19.024 59.626C18.7747 59.3767 18.65 59.054 18.65 58.658V45.942C18.65 45.5607 18.7747 45.2453 19.024 44.996C19.288 44.732 19.6107 44.6 19.992 44.6H27.142C27.5233 44.6 27.8387 44.7247 28.088 44.974C28.352 45.2087 28.484 45.5167 28.484 45.898C28.484 46.2207 28.352 46.5067 28.088 46.756C27.8387 47.0053 27.5233 47.13 27.142 47.13H21.4ZM39.1953 48.23C39.5766 48.23 39.8919 48.362 40.1412 48.626C40.3906 48.8753 40.5153 49.1907 40.5153 49.572V55.16C40.5153 56.744 40.0753 57.9833 39.1953 58.878C38.3299 59.7727 37.0906 60.22 35.4773 60.22C33.8639 60.22 32.6246 59.7727 31.7593 58.878C30.8939 57.9833 30.4613 56.744 30.4613 55.16V49.572C30.4613 49.1907 30.5859 48.8753 30.8353 48.626C31.0846 48.362 31.3999 48.23 31.7812 48.23C32.1626 48.23 32.4779 48.362 32.7273 48.626C32.9766 48.8753 33.1013 49.1907 33.1013 49.572V55.16C33.1013 56.0547 33.2993 56.722 33.6953 57.162C34.0913 57.5873 34.6853 57.8 35.4773 57.8C36.2839 57.8 36.8853 57.5873 37.2813 57.162C37.6773 56.722 37.8753 56.0547 37.8753 55.16V49.572C37.8753 49.1907 37.9999 48.8753 38.2493 48.626C38.4986 48.362 38.8139 48.23 39.1953 48.23ZM49.6654 48.01C51.1614 48.01 52.1954 48.4573 52.7674 49.352C53.3394 50.232 53.6254 51.4567 53.6254 53.026V58.658C53.6254 59.0393 53.5007 59.362 53.2514 59.626C53.002 59.8753 52.6867 60 52.3054 60C51.924 60 51.6087 59.8753 51.3594 59.626C51.11 59.362 50.9854 59.0393 50.9854 58.658V53.026C50.9854 52.2193 50.8167 51.5887 50.4794 51.134C50.142 50.6647 49.5627 50.43 48.7414 50.43C47.8907 50.43 47.2234 50.6793 46.7394 51.178C46.2554 51.662 46.0134 52.278 46.0134 53.026V58.658C46.0134 59.0393 45.8887 59.362 45.6394 59.626C45.39 59.8753 45.0747 60 44.6934 60C44.312 60 43.9967 59.8753 43.7474 59.626C43.498 59.362 43.3734 59.0393 43.3734 58.658V49.572C43.3734 49.1907 43.498 48.8753 43.7474 48.626C43.9967 48.362 44.312 48.23 44.6934 48.23C45.0747 48.23 45.39 48.362 45.6394 48.626C45.8887 48.8753 46.0134 49.1907 46.0134 49.572V49.946C46.4094 49.418 46.9227 48.9633 47.5534 48.582C48.1987 48.2007 48.9027 48.01 49.6654 48.01ZM58.9868 50.034V57.404C58.9868 57.9613 59.0895 58.3427 59.2948 58.548C59.5002 58.7387 59.7715 58.834 60.1088 58.834C60.1968 58.834 60.3068 58.8193 60.4388 58.79C60.5708 58.746 60.6735 58.724 60.7468 58.724C60.8788 58.724 60.9888 58.7827 61.0768 58.9C61.1795 59.0027 61.2308 59.1273 61.2308 59.274C61.2308 59.4793 61.1135 59.6553 60.8788 59.802C60.6442 59.934 60.3655 60 60.0428 60C59.6468 60 59.2948 59.9633 58.9868 59.89C58.6788 59.8167 58.3782 59.5967 58.0848 59.23C57.8062 58.8633 57.6668 58.2767 57.6668 57.47V50.034H56.0608C55.8848 50.034 55.7308 49.9753 55.5988 49.858C55.4815 49.7407 55.4228 49.594 55.4228 49.418C55.4228 49.242 55.4815 49.0953 55.5988 48.978C55.7308 48.8607 55.8848 48.802 56.0608 48.802H57.6668V46.36C57.6668 46.1693 57.7255 46.0153 57.8428 45.898C57.9748 45.766 58.1362 45.7 58.3268 45.7C58.5175 45.7 58.6715 45.766 58.7888 45.898C58.9208 46.0153 58.9868 46.1693 58.9868 46.36V48.802H61.1868C61.3482 48.802 61.4875 48.868 61.6048 49C61.7368 49.132 61.8028 49.2787 61.8028 49.44C61.8028 49.616 61.7442 49.7627 61.6268 49.88C61.5095 49.9827 61.3628 50.034 61.1868 50.034H58.9868ZM73.3719 48.758C73.5626 48.758 73.7166 48.824 73.8339 48.956C73.9659 49.088 74.0319 49.2493 74.0319 49.44V59.34C74.0319 59.5307 73.9659 59.692 73.8339 59.824C73.7166 59.9413 73.5626 60 73.3719 60C73.1812 60 73.0199 59.9413 72.8879 59.824C72.7706 59.692 72.7119 59.5307 72.7119 59.34V57.866C72.3452 58.526 71.7952 59.0833 71.0619 59.538C70.3286 59.9927 69.5292 60.22 68.6639 60.22C67.6812 60.22 66.7939 59.9633 66.0019 59.45C65.2246 58.9367 64.6086 58.2327 64.1539 57.338C63.7139 56.4433 63.4939 55.4387 63.4939 54.324C63.4939 53.2093 63.7212 52.212 64.1759 51.332C64.6306 50.4373 65.2466 49.7407 66.0239 49.242C66.8159 48.7433 67.6886 48.494 68.6419 48.494C69.5219 48.494 70.3286 48.7067 71.0619 49.132C71.7952 49.5573 72.3452 50.1147 72.7119 50.804V49.44C72.7119 49.2493 72.7706 49.088 72.8879 48.956C73.0199 48.824 73.1812 48.758 73.3719 48.758ZM68.7959 58.988C69.5586 58.988 70.2406 58.79 70.8419 58.394C71.4579 57.9833 71.9346 57.426 72.2719 56.722C72.6239 56.0033 72.7999 55.204 72.7999 54.324C72.7999 53.4733 72.6239 52.696 72.2719 51.992C71.9346 51.288 71.4579 50.738 70.8419 50.342C70.2406 49.9313 69.5586 49.726 68.7959 49.726C68.0332 49.726 67.3439 49.924 66.7279 50.32C66.1266 50.716 65.6499 51.266 65.2979 51.97C64.9606 52.6593 64.7919 53.444 64.7919 54.324C64.7919 55.204 64.9606 56.0033 65.2979 56.722C65.6352 57.426 66.1046 57.9833 66.7059 58.394C67.3219 58.79 68.0186 58.988 68.7959 58.988ZM76.8383 58.218C76.7209 58.0273 76.6623 57.866 76.6623 57.734C76.6623 57.5433 76.7576 57.3967 76.9483 57.294C77.0363 57.206 77.1536 57.162 77.3003 57.162C77.4763 57.162 77.6376 57.2353 77.7843 57.382C78.6496 58.526 79.8009 59.098 81.2383 59.098C81.9423 59.098 82.5509 58.9367 83.0643 58.614C83.5923 58.2767 83.8563 57.7927 83.8563 57.162C83.8563 56.546 83.6143 56.084 83.1303 55.776C82.6463 55.468 81.9716 55.204 81.1063 54.984C79.8889 54.676 78.9356 54.28 78.2463 53.796C77.5569 53.2973 77.2123 52.5713 77.2123 51.618C77.2123 51.0167 77.3809 50.4813 77.7183 50.012C78.0556 49.528 78.5103 49.154 79.0823 48.89C79.6689 48.626 80.3289 48.494 81.0623 48.494C81.6929 48.494 82.3236 48.6187 82.9543 48.868C83.5996 49.1027 84.1496 49.484 84.6043 50.012C84.7363 50.1147 84.8023 50.2613 84.8023 50.452C84.8023 50.628 84.7289 50.782 84.5823 50.914C84.4796 51.002 84.3476 51.046 84.1863 51.046C84.0396 51.046 83.9076 50.9873 83.7903 50.87C83.4383 50.474 83.0203 50.1733 82.5363 49.968C82.0523 49.7627 81.5316 49.66 80.9743 49.66C80.2849 49.66 79.6909 49.8213 79.1923 50.144C78.7083 50.4667 78.4663 50.9507 78.4663 51.596C78.4956 52.1827 78.7596 52.63 79.2583 52.938C79.7716 53.246 80.5196 53.5247 81.5023 53.774C82.2649 53.9647 82.8956 54.1773 83.3943 54.412C83.8929 54.6467 84.2963 54.9767 84.6043 55.402C84.9269 55.8273 85.0883 56.392 85.0883 57.096C85.0883 58.0493 84.7069 58.812 83.9443 59.384C83.1816 59.9413 82.2356 60.22 81.1063 60.22C79.3169 60.22 77.8943 59.5527 76.8383 58.218ZM89.9888 50.034V57.404C89.9888 57.9613 90.0914 58.3427 90.2968 58.548C90.5021 58.7387 90.7734 58.834 91.1108 58.834C91.1988 58.834 91.3088 58.8193 91.4408 58.79C91.5728 58.746 91.6754 58.724 91.7488 58.724C91.8808 58.724 91.9908 58.7827 92.0788 58.9C92.1814 59.0027 92.2328 59.1273 92.2328 59.274C92.2328 59.4793 92.1154 59.6553 91.8808 59.802C91.6461 59.934 91.3674 60 91.0448 60C90.6488 60 90.2968 59.9633 89.9888 59.89C89.6808 59.8167 89.3801 59.5967 89.0868 59.23C88.8081 58.8633 88.6688 58.2767 88.6688 57.47V50.034H87.0628C86.8868 50.034 86.7328 49.9753 86.6008 49.858C86.4834 49.7407 86.4248 49.594 86.4248 49.418C86.4248 49.242 86.4834 49.0953 86.6008 48.978C86.7328 48.8607 86.8868 48.802 87.0628 48.802H88.6688V46.36C88.6688 46.1693 88.7274 46.0153 88.8448 45.898C88.9768 45.766 89.1381 45.7 89.3288 45.7C89.5194 45.7 89.6734 45.766 89.7908 45.898C89.9228 46.0153 89.9888 46.1693 89.9888 46.36V48.802H92.1888C92.3501 48.802 92.4894 48.868 92.6068 49C92.7388 49.132 92.8048 49.2787 92.8048 49.44C92.8048 49.616 92.7461 49.7627 92.6288 49.88C92.5114 49.9827 92.3648 50.034 92.1888 50.034H89.9888ZM96.5199 59.34C96.5199 59.5307 96.4539 59.692 96.3219 59.824C96.2045 59.9413 96.0505 60 95.8599 60C95.6692 60 95.5079 59.9413 95.3759 59.824C95.2585 59.692 95.1999 59.5307 95.1999 59.34V49.22C95.1999 49.0293 95.2585 48.8753 95.3759 48.758C95.5079 48.626 95.6692 48.56 95.8599 48.56C96.0505 48.56 96.2045 48.626 96.3219 48.758C96.4539 48.8753 96.5199 49.0293 96.5199 49.22V59.34ZM95.8599 47.086C95.5665 47.086 95.3392 47.02 95.1779 46.888C95.0165 46.7413 94.9359 46.536 94.9359 46.272V46.052C94.9359 45.788 95.0165 45.59 95.1779 45.458C95.3539 45.3113 95.5885 45.238 95.8819 45.238C96.4685 45.238 96.7619 45.5093 96.7619 46.052V46.272C96.7619 46.536 96.6812 46.7413 96.5199 46.888C96.3732 47.02 96.1532 47.086 95.8599 47.086ZM104.811 48.494C105.5 48.494 106.138 48.5747 106.725 48.736C107.326 48.8827 107.803 49.088 108.155 49.352C108.522 49.616 108.705 49.902 108.705 50.21C108.705 50.3713 108.646 50.518 108.529 50.65C108.426 50.782 108.294 50.848 108.133 50.848C107.986 50.848 107.862 50.8187 107.759 50.76C107.671 50.7013 107.568 50.6133 107.451 50.496C107.26 50.3053 107.077 50.166 106.901 50.078C106.681 49.9753 106.388 49.8947 106.021 49.836C105.669 49.7627 105.288 49.726 104.877 49.726C104.07 49.726 103.33 49.9313 102.655 50.342C101.995 50.7527 101.474 51.31 101.093 52.014C100.712 52.718 100.521 53.4953 100.521 54.346C100.521 55.226 100.704 56.018 101.071 56.722C101.438 57.426 101.944 57.9833 102.589 58.394C103.249 58.79 103.997 58.988 104.833 58.988C105.361 58.988 105.779 58.944 106.087 58.856C106.41 58.768 106.725 58.6433 107.033 58.482C107.136 58.4233 107.312 58.2913 107.561 58.086C107.678 57.9833 107.781 57.91 107.869 57.866C107.957 57.8073 108.052 57.778 108.155 57.778C108.331 57.778 108.47 57.8367 108.573 57.954C108.676 58.0567 108.727 58.196 108.727 58.372C108.727 58.6213 108.551 58.8927 108.199 59.186C107.847 59.4647 107.363 59.7067 106.747 59.912C106.131 60.1173 105.449 60.22 104.701 60.22C103.63 60.22 102.677 59.9707 101.841 59.472C101.005 58.9587 100.352 58.2547 99.8829 57.36C99.4283 56.4653 99.2009 55.4607 99.2009 54.346C99.2009 53.2753 99.4356 52.3 99.9049 51.42C100.374 50.5253 101.034 49.814 101.885 49.286C102.736 48.758 103.711 48.494 104.811 48.494Z" fill="#EDE827"/>
<path d="M19.353 62.096V64.787H22.551C22.733 64.787 22.8803 64.8433 22.993 64.956C23.1143 65.0687 23.175 65.216 23.175 65.398C23.175 65.554 23.1143 65.6883 22.993 65.801C22.8803 65.9137 22.733 65.97 22.551 65.97H19.353V69.376C19.353 69.5493 19.288 69.6967 19.158 69.818C19.0367 69.9393 18.8893 70 18.716 70C18.534 70 18.3823 69.9393 18.261 69.818C18.1397 69.6967 18.079 69.5493 18.079 69.376V61.524C18.079 61.3507 18.1397 61.2033 18.261 61.082C18.3823 60.9607 18.5297 60.9 18.703 60.9H23.136C23.318 60.9 23.4653 60.9563 23.578 61.069C23.6993 61.1817 23.76 61.329 23.76 61.511C23.76 61.667 23.6993 61.8057 23.578 61.927C23.4567 62.0397 23.3093 62.096 23.136 62.096H19.353ZM34.8985 66.594C34.8985 67.27 34.7468 67.8767 34.4435 68.414C34.1401 68.9513 33.7241 69.3717 33.1955 69.675C32.6755 69.9783 32.0991 70.13 31.4665 70.13C30.8338 70.13 30.2531 69.9783 29.7245 69.675C29.2045 69.3717 28.7928 68.9513 28.4895 68.414C28.1861 67.8767 28.0345 67.27 28.0345 66.594C28.0345 65.918 28.1861 65.307 28.4895 64.761C28.7928 64.215 29.2045 63.7903 29.7245 63.487C30.2531 63.1837 30.8338 63.032 31.4665 63.032C32.0991 63.032 32.6755 63.1837 33.1955 63.487C33.7241 63.7903 34.1401 64.215 34.4435 64.761C34.7468 65.307 34.8985 65.918 34.8985 66.594ZM33.6635 66.594C33.6635 66.126 33.5638 65.71 33.3645 65.346C33.1738 64.9733 32.9095 64.6873 32.5715 64.488C32.2421 64.28 31.8738 64.176 31.4665 64.176C31.0591 64.176 30.6865 64.28 30.3485 64.488C30.0191 64.6873 29.7548 64.9733 29.5555 65.346C29.3648 65.71 29.2695 66.126 29.2695 66.594C29.2695 67.0533 29.3648 67.465 29.5555 67.829C29.7548 68.193 30.0191 68.479 30.3485 68.687C30.6865 68.8863 31.0591 68.986 31.4665 68.986C31.8738 68.986 32.2421 68.8863 32.5715 68.687C32.9095 68.479 33.1738 68.193 33.3645 67.829C33.5638 67.465 33.6635 67.0533 33.6635 66.594ZM44.7843 63.188C44.9663 63.188 45.1136 63.2487 45.2263 63.37C45.3476 63.4913 45.4083 63.6387 45.4083 63.812V67.27C45.4083 68.1713 45.1569 68.8733 44.6543 69.376C44.1603 69.87 43.4583 70.117 42.5483 70.117C41.6469 70.117 40.9493 69.87 40.4553 69.376C39.9613 68.8733 39.7143 68.1713 39.7143 67.27V63.812C39.7143 63.6387 39.7706 63.4913 39.8833 63.37C40.0046 63.2487 40.1519 63.188 40.3253 63.188C40.5073 63.188 40.6546 63.2487 40.7673 63.37C40.8886 63.4913 40.9493 63.6387 40.9493 63.812V67.27C40.9493 68.4053 41.4823 68.973 42.5483 68.973C43.0769 68.973 43.4799 68.83 43.7573 68.544C44.0346 68.258 44.1733 67.8333 44.1733 67.27V63.812C44.1733 63.6387 44.2296 63.4913 44.3423 63.37C44.4636 63.2487 44.6109 63.188 44.7843 63.188ZM54.0283 63.032C54.2536 63.032 54.4486 63.0927 54.6133 63.214C54.7779 63.3267 54.8603 63.4697 54.8603 63.643C54.8603 63.851 54.8039 64.0113 54.6913 64.124C54.5873 64.228 54.4573 64.28 54.3013 64.28C54.2233 64.28 54.1063 64.254 53.9503 64.202C53.7683 64.1413 53.6253 64.111 53.5213 64.111C53.2526 64.111 52.9883 64.2063 52.7283 64.397C52.4769 64.579 52.2689 64.8347 52.1043 65.164C51.9483 65.4847 51.8703 65.8443 51.8703 66.243V69.376C51.8703 69.5493 51.8096 69.6967 51.6883 69.818C51.5756 69.9393 51.4283 70 51.2463 70C51.0643 70 50.9169 69.9437 50.8043 69.831C50.6916 69.7097 50.6353 69.558 50.6353 69.376V63.812C50.6353 63.6387 50.6916 63.4913 50.8043 63.37C50.9256 63.2487 51.0729 63.188 51.2463 63.188C51.4283 63.188 51.5756 63.2487 51.6883 63.37C51.8096 63.4913 51.8703 63.6387 51.8703 63.812V64.475C52.0609 64.0503 52.3469 63.708 52.7283 63.448C53.1096 63.1793 53.5429 63.0407 54.0283 63.032Z" fill="#342798"/>
<defs>
<linearGradient id="paint0_linear" x1="50" y1="16.5" x2="7" y2="97" gradientUnits="userSpaceOnUse">
<stop stop-color="#3421BF"/>
<stop offset="0.369792" stop-color="#603199"/>
<stop offset="0.5" stop-color="#6B3399"/>
<stop offset="0.65625" stop-color="#6C3598"/>
<stop offset="1" stop-color="#EDE827"/>
</linearGradient>
</defs>
</svg>
